<svg width="20" height="20" viewBox="0 0 20 20" fill="none" xmlns="http://www.w3.org/2000/svg">
<path d="M17.9999 16.7711H16.8787V8.72315C16.8787 8.34981 16.5721 8.04313 16.1921 8.04313H13.8121V2.5765C13.8121 2.20317 13.5054 1.89648 13.132 1.89648H6.87207C6.49874 1.89648 6.19206 2.20317 6.19206 2.5765V8.04313H3.80538C3.42537 8.04313 3.11873 8.34981 3.11873 8.72315V16.7711H1.99992C1.63143 16.7711 1.33325 17.0693 1.33325 17.4377C1.33325 17.8062 1.63143 18.1044 1.99992 18.1044H17.9999C18.3684 18.1044 18.6666 17.8062 18.6666 17.4377C18.6666 17.0693 18.3684 16.7711 17.9999 16.7711ZM12.5387 10.6232C12.5387 10.4698 12.6654 10.3431 12.8187 10.3431H13.8454C13.9987 10.3431 14.1254 10.4698 14.1254 10.6232V11.6498C14.1254 11.8031 13.9987 11.9298 13.8454 11.9298H12.8187C12.6654 11.9298 12.5387 11.8031 12.5387 11.6498V10.6232ZM7.45874 14.9832C7.45874 15.1365 7.33207 15.2631 7.17871 15.2631H6.15206C5.99874 15.2631 5.87207 15.1365 5.87207 14.9832V13.9565C5.87207 13.8031 5.99874 13.6765 6.15206 13.6765H7.17871C7.33207 13.6765 7.45874 13.8031 7.45874 13.9565V14.9832ZM7.49874 11.6765C7.49874 11.8365 7.3654 11.9698 7.2054 11.9698H6.12541C5.96537 11.9698 5.83207 11.8365 5.83207 11.6765V10.5965C5.83207 10.4365 5.96537 10.3031 6.12541 10.3031H7.2054C7.3654 10.3031 7.49874 10.4365 7.49874 10.5965V11.6765ZM10.7987 14.9898C10.7987 15.1431 10.672 15.2698 10.5187 15.2698H9.47872C9.3254 15.2698 9.19873 15.1431 9.19873 14.9898V13.9498C9.19873 13.7965 9.3254 13.6698 9.47872 13.6698H10.5187C10.672 13.6698 10.7987 13.7965 10.7987 13.9498V14.9898ZM10.7987 11.6565C10.7987 11.8098 10.672 11.9365 10.5187 11.9365H9.47872C9.3254 11.9365 9.19873 11.8098 9.19873 11.6565V10.6165C9.19873 10.4631 9.3254 10.3365 9.47872 10.3365H10.5187C10.672 10.3365 10.7987 10.4631 10.7987 10.6165V11.6565ZM11.3054 5.90983H10.5654V6.64982C10.5654 7.01648 10.2654 7.31649 9.89872 7.31649C9.53206 7.31649 9.23206 7.01648 9.23206 6.64982V5.90983H8.49207C8.12541 5.90983 7.8254 5.60982 7.8254 5.24316C7.8254 4.87647 8.12541 4.5765 8.49207 4.5765H9.23206V3.83647C9.23206 3.46981 9.53206 3.1698 9.89872 3.1698C10.2654 3.1698 10.5654 3.46981 10.5654 3.83647V4.5765H11.3054C11.672 4.5765 11.972 4.87647 11.972 5.24316C11.972 5.60982 11.672 5.90983 11.3054 5.90983ZM14.1654 15.0098C14.1654 15.1698 14.0321 15.3031 13.8721 15.3031H12.7921C12.632 15.3031 12.4987 15.1698 12.4987 15.0098V13.9298C12.4987 13.7698 12.632 13.6365 12.7921 13.6365H13.8721C14.0321 13.6365 14.1654 13.7698 14.1654 13.9298V15.0098Z" fill="#9AA0A6"/>
</svg>
