<svg width="108" height="148" viewBox="0 0 108 148" fill="none" xmlns="http://www.w3.org/2000/svg">
<path d="M53.9905 0.871948C35.1274 0.871948 19.875 16.1433 19.875 35.0065V81.3048C8.42073 86.0766 0.375 97.3676 0.375 110.559V144.684C0.375184 146.031 1.46642 147.122 2.81256 147.122H105.188C106.534 147.122 107.625 146.031 107.625 144.684V110.559C107.625 97.3676 99.5793 86.0766 88.125 81.3048V35.0065C88.125 16.1433 72.8536 0.871948 53.9905 0.871948ZM58.8846 34.7731C60.7031 37.2759 63.544 39.8815 68.6203 39.8815H71.0673V52.0642C71.0672 61.5589 63.4854 69.1219 53.9905 69.1219C44.4958 69.1219 36.9328 61.5589 36.9328 52.0642V39.8815H49.1155C54.1996 39.8815 57.0676 37.2787 58.8846 34.7731ZM63.7548 71.6831V80.7096C63.7548 80.7096 61.7152 86.1796 54.0048 86.1796C46.2944 86.1796 44.25 80.7096 44.25 80.7096V71.6927C47.1879 73.154 50.4874 73.9969 53.9905 73.9969C57.5028 73.9969 60.8112 73.1511 63.7548 71.6831ZM32.072 83.7471H39.8607L51.5578 135.168V142.247H22.3173V130.064C22.3449 128.681 21.2157 127.552 19.8322 127.579C18.486 127.607 17.4158 128.718 17.4423 130.064V142.247H5.25003V110.559C5.25003 97.3311 14.6558 86.4739 27.1923 84.204V103.704C24.3686 104.717 22.3173 107.404 22.3173 110.559C22.3173 114.569 25.6105 117.867 29.6203 117.867C33.6299 117.867 36.9471 114.569 36.9471 110.559C36.947 107.411 34.8904 104.732 32.072 103.714V83.7471ZM68.1299 83.7471H75.9376V101.052C70.3858 102.184 66.1828 107.11 66.1828 112.987V115.439C66.1828 118.693 71.0625 118.693 71.0625 115.439V112.987C71.0625 108.894 74.2722 105.684 78.3655 105.684C82.4587 105.684 85.6923 108.894 85.6923 112.987V115.439C85.6186 118.762 90.641 118.762 90.5673 115.439V112.987C90.5673 107.116 86.3583 102.196 80.8125 101.057V84.204C93.3466 86.4757 102.75 97.3326 102.75 110.559V142.247H90.5673V130.064C90.5949 128.681 89.4657 127.552 88.0822 127.579C86.7359 127.607 85.6659 128.718 85.6923 130.064V142.247H56.4327V135.253L68.1299 83.7471ZM29.6203 108.113C30.9953 108.113 32.072 109.184 32.072 110.559C32.072 111.935 30.9953 112.987 29.6203 112.987C28.2452 112.987 27.1923 111.935 27.1923 110.559C27.1923 109.184 28.2451 108.112 29.6203 108.113Z" fill="#8C8C8C"/>
</svg>
