<svg width="134" height="150" viewBox="0 0 134 150" fill="none" xmlns="http://www.w3.org/2000/svg">
<path d="M66.9999 93.0959C68.5599 91.5359 71.0559 89.0399 73.5519 86.2319C71.3679 86.8559 69.1839 87.1679 66.9999 87.1679C64.8159 87.1679 62.6319 86.8559 60.4479 86.2319C62.9439 89.0399 65.4399 91.5359 66.9999 93.0959Z" fill="#8C8C8C"/>
<path d="M39.232 57.216C39.544 57.216 39.544 57.216 39.544 56.904C43.912 70.944 54.52 84.048 66.688 84.048C78.856 84.048 89.464 70.944 93.832 56.904L94.144 57.216C96.328 57.84 99.136 55.344 100.072 51.6C101.008 47.856 100.072 44.424 97.888 43.8C101.32 28.512 99.136 20.4 96.328 16.344C93.208 11.664 88.84 11.04 88.216 10.728C70.12 -11.112 34.24 3.86402 34.864 36.936C34.864 39.432 35.176 41.616 35.488 43.488C35.176 43.488 35.176 43.488 34.864 43.488C32.68 44.112 31.744 47.544 32.68 51.288C34.24 55.032 37.048 57.528 39.232 57.216Z" fill="#8C8C8C"/>
<path d="M59.8239 116.808L61.0719 108.072L60.4479 107.448L57.0159 110.256L59.8239 116.808Z" fill="#8C8C8C"/>
<path d="M74.1759 116.808L76.9839 110.256L73.5519 107.448L72.9279 108.072L74.1759 116.808Z" fill="#8C8C8C"/>
<path d="M93.8319 83.424L88.5279 74.688C86.0319 77.808 83.2239 80.616 80.1039 82.8C73.8639 91.536 66.9999 97.464 66.9999 97.464L77.6079 106.824L93.8319 83.424Z" fill="#8C8C8C"/>
<path d="M53.896 82.8C50.776 80.616 47.968 77.808 45.472 74.688L40.168 83.424L56.392 106.824L67 97.464C67 97.464 60.136 91.536 53.896 82.8Z" fill="#8C8C8C"/>
<path d="M66.9999 133.032L71.6799 122.424L69.8079 106.824L71.3679 105.264L66.9999 101.52L62.6319 105.264L64.1919 106.824L62.3199 122.424L66.9999 133.032Z" fill="#8C8C8C"/>
<path d="M102.256 86.2319C103.504 88.4159 104.44 90.2879 105.376 91.8479C113.488 92.4719 120.976 101.208 122.848 112.44C123.16 114.936 123.472 117.12 123.472 119.616C124.096 120.552 124.72 121.488 125.032 122.424C125.344 123.984 125.032 125.544 124.096 126.792C123.16 128.04 121.912 128.976 120.352 129.288C120.04 129.288 119.728 129.288 119.416 129.288C116.608 129.288 114.112 127.104 113.488 124.296C113.176 122.424 113.8 120.552 115.048 118.992C115.048 117.12 115.048 115.248 114.736 113.376C113.176 105.264 108.496 99.9599 105.064 99.9599C104.752 99.9599 104.44 99.9599 104.44 99.9599C102.88 100.272 101.008 101.832 100.072 104.64C98.8239 107.76 98.5119 112.128 99.4479 116.184C99.7599 118.056 100.384 119.616 101.008 121.488C102.568 122.424 103.816 123.984 104.44 125.856C105.064 128.976 102.88 132.096 99.4479 132.72C99.1359 132.72 98.8239 132.72 98.5119 132.72C95.7039 132.72 93.2079 130.536 92.5839 127.728C92.2719 126.48 92.5839 125.544 92.8959 124.608C91.9599 122.424 91.3359 120.24 90.7119 117.744C89.7759 111.816 90.0879 105.888 92.2719 100.896C93.5199 98.0879 95.0799 95.5919 97.2639 94.0319C96.3279 92.4719 95.3919 90.5999 94.4559 88.7279L84.1599 103.704L66.9999 140.832L50.4639 104.016L39.5439 88.4159C34.5519 94.9679 29.5599 102.456 27.0639 115.248C29.5599 117.12 30.8079 119.928 30.8079 122.736C30.8079 128.04 26.4399 132.096 21.4479 132.096C16.1439 132.096 11.7759 127.728 11.7759 122.736C11.7759 118.68 14.2719 115.248 18.0159 113.688C20.5119 101.208 24.8799 93.4079 29.5599 86.5439C16.1439 92.4719 0.231873 104.64 0.231873 118.368V143.64C0.231873 147.072 3.03987 149.88 6.47187 149.88H127.216C130.648 149.88 133.456 147.072 133.456 143.64V118.992C133.456 104.328 115.984 91.8479 102.256 86.2319Z" fill="#8C8C8C"/>
<path d="M119.728 112.752C117.856 102.144 110.68 94.3441 103.816 94.6561C103.816 94.6561 103.504 94.6561 103.192 94.6561C102.256 92.4721 100.072 88.1041 97.5758 84.0481C97.2638 84.0481 97.2638 84.0481 96.9518 83.7361L95.3918 85.9201C97.5758 89.3521 99.4478 93.0961 100.384 95.2801C97.8878 96.5281 95.7038 99.0241 94.1438 102.456C92.2718 106.824 91.9598 112.128 92.8958 117.432C93.5198 120.24 94.1438 122.736 95.3918 125.232C94.7678 125.856 94.4558 126.792 94.4558 127.728C94.7678 129.288 96.3278 130.224 97.8878 130.224C99.4478 129.912 100.384 128.352 100.384 126.792C100.072 125.544 99.1358 124.608 97.8878 124.608C96.9518 122.424 96.0158 119.928 95.3918 117.432C93.5198 107.448 96.9518 98.7121 102.88 97.7761H103.816C109.432 97.4641 115.36 104.328 117.232 113.688C117.544 116.184 117.856 118.68 117.544 121.176C116.608 121.8 115.672 123.048 115.984 124.296C116.296 125.856 117.856 126.792 119.416 126.792C120.976 126.48 121.912 124.92 121.912 123.36C121.912 122.424 120.976 121.8 120.352 121.488C120.352 118.368 120.352 115.56 119.728 112.752Z" fill="#8C8C8C"/>
<path d="M37.0478 84.3601C36.4238 84.6721 35.7998 84.6721 35.1758 84.9841C29.2478 93.4081 23.3198 101.52 20.8238 116.808C17.7038 117.12 14.8958 119.928 14.8958 123.048C14.8958 126.48 17.7038 129.288 21.4478 129.288C24.8798 129.288 27.6878 126.48 27.6878 123.048C27.6878 120.24 25.8158 118.056 23.6318 117.12C26.1278 101.832 32.3678 93.0961 37.6718 85.9201L37.0478 84.3601Z" fill="#8C8C8C"/>
</svg>
