<svg width="32" height="30" viewBox="0 0 32 30" fill="none" xmlns="http://www.w3.org/2000/svg">
<path d="M31.4483 13.9738H24.3917V12.611C24.3914 12.412 24.2839 12.2286 24.1103 12.131L16.5517 7.88276V5.72001H18.0469V6.54207C18.0469 6.84676 18.2939 7.0938 18.5986 7.0938H23.1062C23.4109 7.09366 23.6578 6.84656 23.6577 6.54187C23.6577 6.47801 23.6466 6.41463 23.6248 6.35449L23.1724 5.06897L23.6303 3.81104C23.7339 3.52449 23.5857 3.20821 23.2991 3.10463C23.239 3.0829 23.1757 3.0718 23.1117 3.07173H21.0593V2.27173C21.0593 1.96704 20.8123 1.72001 20.5076 1.72001H16.5517V1.0469C16.5517 0.742213 16.3047 0.495178 16 0.495178C15.6953 0.495178 15.4483 0.742213 15.4483 1.0469V7.88276L7.88966 12.1255C7.71614 12.223 7.60862 12.4065 7.60828 12.6055V13.9683H0.551724C0.247034 13.9683 0 14.2153 0 14.52V28.9531C0 29.2578 0.247034 29.5048 0.551724 29.5048H31.4483C31.753 29.5048 32 29.2578 32 28.9531V14.5255C32 14.2208 31.753 13.9738 31.4483 13.9738ZM21.0593 5.16828L21.0372 5.14621V4.19725H22.2952L22.069 4.90345C22.0238 5.02635 22.0238 5.16125 22.069 5.28414L22.3283 5.99035H19.1503V5.72001H20.5076C20.8123 5.72001 21.0593 5.47297 21.0593 5.16828ZM16.5517 2.82345H19.9559V3.64552V4.61656H16.5517V2.82345ZM7.60828 28.4014H1.10345V15.0772H7.60828V28.4014ZM15.4483 28.4014H12.5517V22.1007H15.4483V28.4014ZM19.4483 28.4014H16.5517V22.1007H19.4483V28.4014ZM23.3103 28.4014H20.5517V21.549C20.5517 21.2443 20.3047 20.9972 20 20.9972H12C11.6953 20.9972 11.4483 21.2443 11.4483 21.549V28.4014H8.68966V12.9531L16 8.83725L23.2883 12.931L23.3103 14.52V28.4014ZM30.8966 28.4014H24.3917V15.0772H30.8966V28.4014Z" fill="#D90506"/>
</svg>
