<svg width="20" height="20" viewBox="0 0 20 20" fill="none" xmlns="http://www.w3.org/2000/svg">
<path d="M8.33341 5H13.3334M8.33341 11.6667H13.3334M8.33341 8.33333H18.3334M8.33341 15H18.3334M3.33341 8.33333C2.41294 8.33333 1.66675 7.58714 1.66675 6.66667C1.66675 5.74619 2.41294 5 3.33341 5C4.25389 5 5.00008 5.74619 5.00008 6.66667C5.00008 7.58714 4.25389 8.33333 3.33341 8.33333ZM3.33341 15C2.41294 15 1.66675 14.2538 1.66675 13.3333C1.66675 12.4129 2.41294 11.6667 3.33341 11.6667C4.25389 11.6667 5.00008 12.4129 5.00008 13.3333C5.00008 14.2538 4.25389 15 3.33341 15Z" stroke="#66686C" stroke-width="1.25" stroke-linecap="round"/>
</svg>
