<svg width="20" height="20" viewBox="0 0 20 20" fill="none" xmlns="http://www.w3.org/2000/svg">
<path d="M2.5 4.99935C2.5 4.53911 2.8731 4.16602 3.33333 4.16602H8.33333C8.79357 4.16602 9.16667 4.53911 9.16667 4.99935C9.16667 5.45959 8.79357 5.83268 8.33333 5.83268H3.33333C2.8731 5.83268 2.5 5.45959 2.5 4.99935Z" fill="#9AA0A6"/>
<path d="M2.5 9.99935C2.5 9.53911 2.8731 9.16602 3.33333 9.16602H16.6667C17.1269 9.16602 17.5 9.53911 17.5 9.99935C17.5 10.4596 17.1269 10.8327 16.6667 10.8327H3.33333C2.8731 10.8327 2.5 10.4596 2.5 9.99935Z" fill="#9AA0A6"/>
<path d="M3.33333 14.166C2.8731 14.166 2.5 14.5391 2.5 14.9993C2.5 15.4596 2.8731 15.8327 3.33333 15.8327H11.6667C12.1269 15.8327 12.5 15.4596 12.5 14.9993C12.5 14.5391 12.1269 14.166 11.6667 14.166H3.33333Z" fill="#9AA0A6"/>
</svg>
