<svg width="129" height="154" viewBox="0 0 129 154" fill="none" xmlns="http://www.w3.org/2000/svg">
<path d="M64.5 144.002C99.8462 144.002 128.5 115.348 128.5 80.002C128.5 44.6557 99.8462 16.002 64.5 16.002C29.1538 16.002 0.5 44.6557 0.5 80.002C0.5 115.348 29.1538 144.002 64.5 144.002Z" fill="url(#paint0_linear_9241_12045)"/>
<g filter="url(#filter0_d_9241_12045)">
<path d="M101.193 52.6943H27.8067C25.4503 52.6943 23.54 54.6046 23.54 56.961V146.561C23.54 148.917 25.4503 150.828 27.8067 150.828H101.193C103.55 150.828 105.46 148.917 105.46 146.561V56.961C105.46 54.6046 103.55 52.6943 101.193 52.6943Z" fill="white"/>
</g>
<path d="M55.9666 65.4951H33.78C32.3661 65.4951 31.22 66.6413 31.22 68.0551C31.22 69.469 32.3661 70.6151 33.78 70.6151H55.9666C57.3805 70.6151 58.5266 69.469 58.5266 68.0551C58.5266 66.6413 57.3805 65.4951 55.9666 65.4951Z" fill="#FAECEC"/>
<path d="M71.3266 76.5879H33.78C32.3661 76.5879 31.22 77.734 31.22 79.1479C31.22 80.5617 32.3661 81.7079 33.78 81.7079H71.3266C72.7405 81.7079 73.8866 80.5617 73.8866 79.1479C73.8866 77.734 72.7405 76.5879 71.3266 76.5879Z" fill="#DABEBE"/>
<path d="M55.9666 88.5361H33.78C32.3661 88.5361 31.22 89.6823 31.22 91.0961C31.22 92.51 32.3661 93.6561 33.78 93.6561H55.9666C57.3805 93.6561 58.5266 92.51 58.5266 91.0961C58.5266 89.6823 57.3805 88.5361 55.9666 88.5361Z" fill="#FAECEC"/>
<path d="M71.3266 99.6289H33.78C32.3661 99.6289 31.22 100.775 31.22 102.189C31.22 103.603 32.3661 104.749 33.78 104.749H71.3266C72.7405 104.749 73.8866 103.603 73.8866 102.189C73.8866 100.775 72.7405 99.6289 71.3266 99.6289Z" fill="#DABEBE"/>
<path d="M55.9666 111.575H33.78C32.3661 111.575 31.22 112.721 31.22 114.135C31.22 115.549 32.3661 116.695 33.78 116.695H55.9666C57.3805 116.695 58.5266 115.549 58.5266 114.135C58.5266 112.721 57.3805 111.575 55.9666 111.575Z" fill="#FAECEC"/>
<path d="M71.3266 122.668H33.78C32.3661 122.668 31.22 123.814 31.22 125.228C31.22 126.642 32.3661 127.788 33.78 127.788H71.3266C72.7405 127.788 73.8866 126.642 73.8866 125.228C73.8866 123.814 72.7405 122.668 71.3266 122.668Z" fill="#DABEBE"/>
<g filter="url(#filter1_d_9241_12045)">
<path d="M101.193 9.17383H27.8067C25.4503 9.17383 23.54 11.0841 23.54 13.4405V39.0405C23.54 41.3969 25.4503 43.3072 27.8067 43.3072H101.193C103.55 43.3072 105.46 41.3969 105.46 39.0405V13.4405C105.46 11.0841 103.55 9.17383 101.193 9.17383Z" fill="#D90506"/>
</g>
<path d="M55.9666 18.5605H33.78C32.3661 18.5605 31.22 19.7067 31.22 21.1205C31.22 22.5344 32.3661 23.6805 33.78 23.6805H55.9666C57.3805 23.6805 58.5266 22.5344 58.5266 21.1205C58.5266 19.7067 57.3805 18.5605 55.9666 18.5605Z" fill="#FAECEC"/>
<path d="M71.3266 29.6543H33.78C32.3661 29.6543 31.22 30.8004 31.22 32.2143C31.22 33.6281 32.3661 34.7743 33.78 34.7743H71.3266C72.7405 34.7743 73.8866 33.6281 73.8866 32.2143C73.8866 30.8004 72.7405 29.6543 71.3266 29.6543Z" fill="white"/>
<defs>
<filter id="filter0_d_9241_12045" x="17.54" y="43.6943" width="93.9199" height="110.134" filterUnits="userSpaceOnUse" color-interpolation-filters="sRGB">
<feFlood flood-opacity="0" result="BackgroundImageFix"/>
<feColorMatrix in="SourceAlpha" type="matrix" values="0 0 0 0 0 0 0 0 0 0 0 0 0 0 0 0 0 0 127 0" result="hardAlpha"/>
<feOffset dy="-3"/>
<feGaussianBlur stdDeviation="3"/>
<feColorMatrix type="matrix" values="0 0 0 0 0.788235 0 0 0 0 0.803922 0 0 0 0 0.85098 0 0 0 0.349 0"/>
<feBlend mode="normal" in2="BackgroundImageFix" result="effect1_dropShadow_9241_12045"/>
<feBlend mode="normal" in="SourceGraphic" in2="effect1_dropShadow_9241_12045" result="shape"/>
</filter>
<filter id="filter1_d_9241_12045" x="17.54" y="0.173828" width="93.9199" height="46.1338" filterUnits="userSpaceOnUse" color-interpolation-filters="sRGB">
<feFlood flood-opacity="0" result="BackgroundImageFix"/>
<feColorMatrix in="SourceAlpha" type="matrix" values="0 0 0 0 0 0 0 0 0 0 0 0 0 0 0 0 0 0 127 0" result="hardAlpha"/>
<feOffset dy="-3"/>
<feGaussianBlur stdDeviation="3"/>
<feColorMatrix type="matrix" values="0 0 0 0 0.788235 0 0 0 0 0.803922 0 0 0 0 0.85098 0 0 0 0.349 0"/>
<feBlend mode="normal" in2="BackgroundImageFix" result="effect1_dropShadow_9241_12045"/>
<feBlend mode="normal" in="SourceGraphic" in2="effect1_dropShadow_9241_12045" result="shape"/>
</filter>
<linearGradient id="paint0_linear_9241_12045" x1="64.5" y1="16.002" x2="64.5" y2="144.002" gradientUnits="userSpaceOnUse">
<stop stop-color="#FCF5F5"/>
<stop offset="1" stop-color="#F1D4D4"/>
</linearGradient>
</defs>
</svg>
