<svg xmlns="http://www.w3.org/2000/svg" width="24" height="24" viewBox="0 0 24 24" fill="none">
  <path d="M12.3 12.3008C13.2945 12.3008 14.2484 11.9057 14.9516 11.2024C15.6549 10.4992 16.05 9.54534 16.05 8.55078C16.05 7.55622 15.6549 6.60239 14.9516 5.89913C14.2484 5.19587 13.2945 4.80078 12.3 4.80078C11.3054 4.80078 10.3516 5.19587 9.64834 5.89913C8.94508 6.60239 8.54999 7.55622 8.54999 8.55078C8.54999 9.54534 8.94508 10.4992 9.64834 11.2024C10.3516 11.9057 11.3054 12.3008 12.3 12.3008ZM14.8 8.55078C14.8 8.87915 14.7353 9.20431 14.6096 9.50769C14.484 9.81107 14.2998 10.0867 14.0676 10.3189C13.8354 10.5511 13.5598 10.7353 13.2564 10.861C12.953 10.9866 12.6278 11.0513 12.2995 11.0513C11.9711 11.0513 11.6459 10.9866 11.3426 10.861C11.0392 10.7353 10.7635 10.5511 10.5313 10.3189C10.2991 10.0867 10.1149 9.81107 9.98929 9.50769C9.86362 9.20431 9.79895 8.87915 9.79895 8.55078C9.79895 7.88774 10.0623 7.25186 10.5312 6.78301C11 6.31417 11.6359 6.05078 12.2989 6.05078C12.962 6.05078 13.5979 6.31417 14.0667 6.78301C14.5356 7.25186 14.7989 7.88774 14.7989 8.55078H14.8ZM19.8 18.5508C19.8 19.8008 18.55 19.8008 18.55 19.8008H6.04999C6.04999 19.8008 4.79999 19.8008 4.79999 18.5508C4.79999 17.3008 6.04999 13.5508 12.3 13.5508C18.55 13.5508 19.8 17.3008 19.8 18.5508ZM18.55 18.5456C18.5489 18.2383 18.3573 17.3133 17.5094 16.4654C16.6958 15.6508 15.1614 14.8008 12.3 14.8008C9.43749 14.8008 7.90415 15.6508 7.08957 16.4654C6.2427 17.3133 6.05207 18.2383 6.04999 18.5456H18.55Z" fill="#00040A"/>
</svg>