<svg width="129" height="131" viewBox="0 0 129 131" fill="none" xmlns="http://www.w3.org/2000/svg">
<path d="M64.5 128C99.8462 128 128.5 99.3462 128.5 64C128.5 28.6538 99.8462 0 64.5 0C29.1538 0 0.5 28.6538 0.5 64C0.5 99.3462 29.1538 128 64.5 128Z" fill="url(#paint0_linear_8851_12146)"/>
<g filter="url(#filter0_d_8851_12146)">
<mask id="mask0_8851_12146" style="mask-type:alpha" maskUnits="userSpaceOnUse" x="0" y="0" width="129" height="128">
<path d="M64.5 128C99.8462 128 128.5 99.3462 128.5 64C128.5 28.6538 99.8462 0 64.5 0C29.1538 0 0.5 28.6538 0.5 64C0.5 99.3462 29.1538 128 64.5 128Z" fill="url(#paint1_linear_8851_12146)"/>
</mask>
<g mask="url(#mask0_8851_12146)">
<path d="M101.193 36.6934H27.8067C25.4503 36.6934 23.54 38.6036 23.54 40.96V130.56C23.54 132.916 25.4503 134.827 27.8067 134.827H101.193C103.55 134.827 105.46 132.916 105.46 130.56V40.96C105.46 38.6036 103.55 36.6934 101.193 36.6934Z" fill="white"/>
</g>
</g>
<path d="M56.8199 45.2266H34.6332C33.2194 45.2266 32.0732 46.3727 32.0732 47.7866C32.0732 49.2004 33.2194 50.3466 34.6332 50.3466H56.8199C58.2338 50.3466 59.3799 49.2004 59.3799 47.7866C59.3799 46.3727 58.2338 45.2266 56.8199 45.2266Z" fill="#EDD4D4"/>
<path d="M56.8199 81.0664H34.6332C33.2194 81.0664 32.0732 82.2126 32.0732 83.6264C32.0732 85.0403 33.2194 86.1864 34.6332 86.1864H56.8199C58.2338 86.1864 59.3799 85.0403 59.3799 83.6264C59.3799 82.2126 58.2338 81.0664 56.8199 81.0664Z" fill="#EDD4D4"/>
<path d="M92.6601 58.0273H36.3401C34.455 58.0273 32.9268 59.5555 32.9268 61.4407V69.974C32.9268 71.8591 34.455 73.3873 36.3401 73.3873H92.6601C94.5452 73.3873 96.0734 71.8591 96.0734 69.974V61.4407C96.0734 59.5555 94.5452 58.0273 92.6601 58.0273Z" stroke="#D90506" stroke-width="1.70667"/>
<path d="M92.6599 93.0137H36.3399C33.9835 93.0137 32.0732 94.9239 32.0732 97.2803V104.107C32.0732 106.463 33.9835 108.374 36.3399 108.374H92.6599C95.0163 108.374 96.9266 106.463 96.9266 104.107V97.2803C96.9266 94.9239 95.0163 93.0137 92.6599 93.0137Z" fill="#F1D4D4"/>
<path d="M45.7268 27.3071C47.6119 27.3071 49.1401 25.7789 49.1401 23.8938C49.1401 22.0087 47.6119 20.4805 45.7268 20.4805C43.8417 20.4805 42.3135 22.0087 42.3135 23.8938C42.3135 25.7789 43.8417 27.3071 45.7268 27.3071Z" fill="white"/>
<path d="M64.4998 27.3071C66.3849 27.3071 67.9131 25.7789 67.9131 23.8938C67.9131 22.0087 66.3849 20.4805 64.4998 20.4805C62.6146 20.4805 61.0864 22.0087 61.0864 23.8938C61.0864 25.7789 62.6146 27.3071 64.4998 27.3071Z" fill="#F9F9F9"/>
<path d="M83.2732 27.3071C85.1583 27.3071 86.6865 25.7789 86.6865 23.8938C86.6865 22.0087 85.1583 20.4805 83.2732 20.4805C81.3881 20.4805 79.8599 22.0087 79.8599 23.8938C79.8599 25.7789 81.3881 27.3071 83.2732 27.3071Z" fill="white"/>
<path d="M73.8868 75.0939C76.2432 75.0939 78.1535 73.1836 78.1535 70.8272C78.1535 68.4708 76.2432 66.5605 73.8868 66.5605C71.5304 66.5605 69.6201 68.4708 69.6201 70.8272C69.6201 73.1836 71.5304 75.0939 73.8868 75.0939Z" fill="#F1D4D4"/>
<path d="M77.2209 89.0623C76.5382 89.0623 75.9008 89.0623 75.3205 89.0256C74.6057 88.9773 73.9182 88.7327 73.3334 88.3188C72.7487 87.905 72.2894 87.3378 72.0061 86.6798L68.4059 79.5647C68.1419 79.2573 68.01 78.8579 68.0391 78.4537C68.0682 78.0494 68.2559 77.6731 68.5612 77.4066C68.8114 77.2056 69.1235 77.0973 69.4444 77.1003C69.6807 77.1072 69.9127 77.1652 70.1244 77.2704C70.3361 77.3756 70.5225 77.5254 70.6707 77.7096L72.3057 79.941L72.3304 79.97V71.4922C72.3304 71.0716 72.4975 70.6682 72.7949 70.3708C73.0923 70.0733 73.4957 69.9062 73.9163 69.9062C74.3369 69.9062 74.7403 70.0733 75.0377 70.3708C75.3352 70.6682 75.5023 71.0716 75.5023 71.4922V77.0388C75.4838 76.8347 75.5081 76.629 75.5736 76.4348C75.6391 76.2406 75.7443 76.0622 75.8825 75.9109C76.0208 75.7596 76.189 75.6388 76.3766 75.5562C76.5641 75.4735 76.7668 75.4308 76.9717 75.4308C77.1766 75.4308 77.3793 75.4735 77.5668 75.5562C77.7544 75.6388 77.9226 75.7596 78.0609 75.9109C78.1991 76.0622 78.3043 76.2406 78.3698 76.4348C78.4353 76.629 78.4596 76.8347 78.4411 77.0388V78.1951C78.4227 77.991 78.447 77.7853 78.5125 77.5911C78.578 77.3969 78.6832 77.2185 78.8214 77.0672C78.9597 76.9159 79.1279 76.7951 79.3154 76.7124C79.503 76.6298 79.7056 76.5871 79.9106 76.5871C80.1155 76.5871 80.3182 76.6298 80.5057 76.7124C80.6932 76.7951 80.8615 76.9159 80.9997 77.0672C81.138 77.2185 81.2432 77.3969 81.3087 77.5911C81.3741 77.7853 81.3984 77.991 81.38 78.1951V79.086C81.3616 78.8819 81.3859 78.6762 81.4514 78.482C81.5168 78.2878 81.622 78.1094 81.7603 77.9581C81.8985 77.8068 82.0668 77.686 82.2543 77.6033C82.4418 77.5206 82.6445 77.4779 82.8495 77.4779C83.0544 77.4779 83.2571 77.5206 83.4446 77.6033C83.6321 77.686 83.8004 77.8068 83.9386 77.9581C84.0769 78.1094 84.1821 78.2878 84.2475 78.482C84.313 78.6762 84.3373 78.8819 84.3189 79.086V84.4936C84.2899 86.1567 83.5381 88.9608 80.8936 88.9608C80.7016 88.9693 79.0752 89.0632 77.2243 89.0632L77.2209 89.0623Z" fill="#D90506" stroke="white" stroke-width="0.853333"/>
<defs>
<filter id="filter0_d_8851_12146" x="18.42" y="29.0134" width="92.1599" height="101.547" filterUnits="userSpaceOnUse" color-interpolation-filters="sRGB">
<feFlood flood-opacity="0" result="BackgroundImageFix"/>
<feColorMatrix in="SourceAlpha" type="matrix" values="0 0 0 0 0 0 0 0 0 0 0 0 0 0 0 0 0 0 127 0" result="hardAlpha"/>
<feOffset dy="-2.56"/>
<feGaussianBlur stdDeviation="2.56"/>
<feColorMatrix type="matrix" values="0 0 0 0 0.788235 0 0 0 0 0.803922 0 0 0 0 0.85098 0 0 0 0.349 0"/>
<feBlend mode="normal" in2="BackgroundImageFix" result="effect1_dropShadow_8851_12146"/>
<feBlend mode="normal" in="SourceGraphic" in2="effect1_dropShadow_8851_12146" result="shape"/>
</filter>
<linearGradient id="paint0_linear_8851_12146" x1="64.5" y1="0" x2="64.5" y2="128" gradientUnits="userSpaceOnUse">
<stop stop-color="#FCF5F5"/>
<stop offset="1" stop-color="#F1D4D4"/>
</linearGradient>
<linearGradient id="paint1_linear_8851_12146" x1="64.5" y1="0" x2="64.5" y2="128" gradientUnits="userSpaceOnUse">
<stop stop-color="#E3ECFA"/>
<stop offset="1" stop-color="#DAE7FF"/>
</linearGradient>
</defs>
</svg>
